<svg width="66" height="54" viewBox="0 0 66 54" fill="none" xmlns="http://www.w3.org/2000/svg">
<g clip-path="url(#clip0_1642_4625)">
<path fill-rule="evenodd" clip-rule="evenodd" d="M55.63 37.56C55.63 41.77 59.74 48.46 65.48 51.8C56.87 51.8 49.99 49.03 44.74 45.49C45.5 44.92 46.27 44.34 47.04 43.67C52.01 39.08 55.35 32.49 55.35 24.94C55.35 17.39 52 10.7 47.04 6.2C43.69 3.24 39.78 1.23 35.76 0.08C36.04 0 36.42 0 36.71 0C43.59 0 49.8 2.58 54.3 6.69C58.89 10.8 61.66 16.44 61.66 22.75C61.66 28.39 59.46 33.55 55.63 37.56Z" fill="#CACACA"/>
<path fill-rule="evenodd" clip-rule="evenodd" d="M9.46 39.1902C9.46 43.3002 5.55 49.8002 0 53.0502C8.99 53.0502 16.06 49.9002 21.32 46.0702C23.42 46.6402 25.62 46.9302 27.82 46.9302C34.51 46.9302 40.53 44.4402 44.93 40.4302C49.33 36.5102 52 30.9702 52 24.9502C52 18.8302 49.32 13.3802 44.93 9.37021C40.53 5.36021 34.51 2.97021 27.82 2.97021C21.22 2.97021 15.2 5.36021 10.81 9.37021C6.41 13.3902 3.74 18.8302 3.74 24.9502C3.73 30.3902 5.93 35.3702 9.46 39.1902Z" fill="#FFB115"/>
</g>
<defs>
<clipPath id="clip0_1642_4625">
<rect width="65.48" height="53.05" fill="white"/>
</clipPath>
</defs>
</svg>
