<svg width="38" height="27" viewBox="0 0 38 27" fill="none" xmlns="http://www.w3.org/2000/svg">
<path d="M32.4306 4.34221C32.4306 2.30006 30.7598 0.629211 28.7176 0.629211H25.0046C23.9836 0.629211 23.1481 1.46464 23.1481 2.48571C23.1481 3.50679 23.9836 4.34221 25.0046 4.34221H28.7176V9.26194L22.257 17.3377H15.7221V9.91172C15.7221 8.89064 14.8867 8.05522 13.8656 8.05522H8.29612C4.19326 8.05522 0.870117 11.3784 0.870117 15.4812V19.1942C0.870117 20.2153 1.70554 21.0507 2.72662 21.0507H4.58312C4.58312 24.1325 7.07083 26.6202 10.1526 26.6202C13.2344 26.6202 15.7221 24.1325 15.7221 21.0507H22.257C23.3895 21.0507 24.4477 20.5309 25.1532 19.6584L31.6138 11.5826C32.1522 10.9142 32.4306 10.0974 32.4306 9.26194V4.34221ZM10.1526 22.9072C9.13155 22.9072 8.29612 22.0718 8.29612 21.0507H12.0091C12.0091 22.0718 11.1737 22.9072 10.1526 22.9072Z" fill="#ED285D"/>
<path d="M8.29595 2.48569H13.8655C14.8865 2.48569 15.722 3.32111 15.722 4.34219C15.722 5.36327 14.8865 6.19869 13.8655 6.19869H8.29595C7.27488 6.19869 6.43945 5.36327 6.43945 4.34219C6.43945 3.32111 7.27488 2.48569 8.29595 2.48569ZM32.4305 15.4812C29.3487 15.4812 26.861 17.9689 26.861 21.0507C26.861 24.1325 29.3487 26.6202 32.4305 26.6202C35.5123 26.6202 38 24.1325 38 21.0507C38 17.9689 35.5123 15.4812 32.4305 15.4812ZM32.4305 22.9072C31.4094 22.9072 30.574 22.0718 30.574 21.0507C30.574 20.0296 31.4094 19.1942 32.4305 19.1942C33.4516 19.1942 34.287 20.0296 34.287 21.0507C34.287 22.0718 33.4516 22.9072 32.4305 22.9072Z" fill="#ED285D"/>
</svg>
