<svg width="32" height="26" viewBox="0 0 32 26" fill="none" xmlns="http://www.w3.org/2000/svg">
<path fill-rule="evenodd" clip-rule="evenodd" d="M17.5293 2.25293C17.5293 1.2848 16.7445 0.499986 15.7764 0.499986C14.8083 0.499986 14.0234 1.2848 14.0234 2.25293V5.75881C14.0234 5.79562 14.0246 5.83217 14.0268 5.86841C12.7865 6.0244 11.5699 6.34588 10.4101 6.82629C8.7087 7.53104 7.16275 8.564 5.86055 9.86621C4.55834 11.1684 3.52538 12.7144 2.82063 14.4158C2.34003 15.576 2.01849 16.7931 1.86257 18.0339C1.74187 18.9945 2.53797 19.7823 3.50609 19.7823L28.0473 19.7823C29.0154 19.7823 29.8115 18.9945 29.6908 18.0339C29.5349 16.7931 29.2133 15.576 28.7327 14.4158C28.028 12.7144 26.995 11.1684 25.6928 9.86621C24.3906 8.564 22.8447 7.53104 21.1433 6.82629C19.9833 6.34581 18.7665 6.0243 17.526 5.86834C17.5282 5.83212 17.5293 5.79559 17.5293 5.75881V2.25293ZM25.6928 16.2765C25.6311 16.1019 25.5647 15.9288 25.4937 15.7574C24.9652 14.4813 24.1904 13.3219 23.2138 12.3452C22.2371 11.3686 21.0777 10.5939 19.8016 10.0653C18.5256 9.53674 17.1579 9.26469 15.7767 9.26469C14.3955 9.26469 13.0278 9.53674 11.7518 10.0653C10.4757 10.5939 9.31624 11.3686 8.33958 12.3452C7.36293 13.3219 6.5882 14.4814 6.05964 15.7574C5.98864 15.9288 5.92226 16.1019 5.86055 16.2765L25.6928 16.2765ZM-8.61673e-05 23.2882C-8.61673e-05 22.3201 0.784732 21.5353 1.75285 21.5353H29.7999C30.768 21.5353 31.5529 22.3201 31.5529 23.2882C31.5529 24.2563 30.768 25.0412 29.7999 25.0412H1.75285C0.784732 25.0412 -8.61673e-05 24.2563 -8.61673e-05 23.2882Z" fill="#ED285D"/>
</svg>
