<svg width="25" height="25" viewBox="0 0 25 25" fill="none" xmlns="http://www.w3.org/2000/svg">
<path d="M14.6368 15.0721L10.6368 11.0721M14.6368 15.0721L9.63838 20.0706C8.97973 20.7292 8.18023 21.2493 7.26231 21.4076C6.33549 21.5674 5.18532 21.6206 4.63683 21.0721C4.08834 20.5237 4.14153 19.3735 4.30138 18.4467C4.4597 17.5287 4.97973 16.7292 5.63838 16.0706L10.6368 11.0721M14.6368 15.0721C14.6368 15.0721 17.6368 12.0721 15.6368 10.0721C13.6368 8.07214 10.6368 11.0721 10.6368 11.0721M4.19238 12.8846C4.19238 6.38464 6.19238 4.38464 12.6924 4.38464C19.1924 4.38464 21.1924 6.38464 21.1924 12.8846C21.1924 19.3846 19.1924 21.3846 12.6924 21.3846" stroke="#ED285D" stroke-width="1.38462" stroke-linecap="round" stroke-linejoin="round"/>
</svg>
