<svg width="34" height="30" viewBox="0 0 34 30" fill="none" xmlns="http://www.w3.org/2000/svg">
<path opacity="0.15" d="M3.57995 16.0829L13.4008 26.2675C15.3671 28.3066 18.6329 28.3066 20.5992 26.2675L30.42 16.0829C31.9119 14.5358 32.75 12.4375 32.75 10.2496C32.75 5.69346 29.1884 2 24.795 2C22.6853 2 20.6619 2.86915 19.17 4.41624L17 6.66667L14.83 4.41625C13.3381 2.86915 11.3147 2 9.20495 2C4.81155 2 1.25 5.69346 1.25 10.2496C1.25 12.4375 2.08811 14.5358 3.57995 16.0829Z" fill="#ED285D"/>
<path d="M3.57995 16.0829L14.8405 27.7605C16.0202 28.9839 17.9798 28.9839 19.1595 27.7605L30.42 16.0829C31.9119 14.5358 32.75 12.4375 32.75 10.2496C32.75 5.69346 29.1884 2 24.795 2C22.6853 2 20.6619 2.86915 19.17 4.41624L17 6.66667L14.83 4.41625C13.3381 2.86915 11.3147 2 9.20495 2C4.81155 2 1.25 5.69346 1.25 10.2496C1.25 12.4375 2.08811 14.5358 3.57995 16.0829Z" fill="#ED285D" stroke="#ED285D" stroke-width="2.5" stroke-linecap="round" stroke-linejoin="round"/>
</svg>
