<svg width="21" height="16" viewBox="0 0 21 16" fill="none" xmlns="http://www.w3.org/2000/svg">
<path d="M20.014 2.52955V14.1249C20.014 14.8785 19.4035 15.4888 18.6497 15.4888H15.4649V7.75909L10.007 11.8524L4.54901 7.75909V15.4896H1.36428C1.18505 15.4896 1.00758 15.4543 0.842003 15.3857C0.676426 15.3171 0.525991 15.2166 0.399295 15.0898C0.272599 14.9631 0.172123 14.8127 0.103611 14.6471C0.0350981 14.4815 -0.000109299 14.3041 2.54887e-07 14.1249V2.52955C2.54887e-07 0.843059 1.92551 -0.119817 3.27478 0.892245L4.54901 1.84845L10.007 5.94005L15.4649 1.84678L16.7392 0.892245C18.0876 -0.118983 20.014 0.843059 20.014 2.52955Z" fill="#ED295D" fill-opacity="0.6"/>
</svg>
