<svg width="22" height="22" viewBox="0 0 22 22" fill="none" xmlns="http://www.w3.org/2000/svg">
<path fill-rule="evenodd" clip-rule="evenodd" d="M6.82979 0C5.15776 0 3.55421 0.664211 2.37191 1.84651C1.1896 3.02882 0.525391 4.63237 0.525391 6.3044L0.525391 14.7103C0.525391 16.3823 1.1896 17.9858 2.37191 19.1681C3.55421 20.3504 5.15776 21.0147 6.82979 21.0147H15.2356C16.9077 21.0147 18.5112 20.3504 19.6935 19.1681C20.8758 17.9858 21.54 16.3823 21.54 14.7103V6.3044C21.54 4.63237 20.8758 3.02882 19.6935 1.84651C18.5112 0.664211 16.9077 0 15.2356 0L6.82979 0ZM6.1293 10.5073C6.1293 9.20686 6.64591 7.95965 7.56548 7.04009C8.48505 6.12052 9.73225 5.60391 11.0327 5.60391C12.3332 5.60391 13.5804 6.12052 14.5 7.04009C15.4195 7.95965 15.9361 9.20686 15.9361 10.5073C15.9361 11.8078 15.4195 13.055 14.5 13.9746C13.5804 14.8941 12.3332 15.4107 11.0327 15.4107C9.73225 15.4107 8.48505 14.8941 7.56548 13.9746C6.64591 13.055 6.1293 11.8078 6.1293 10.5073ZM15.9361 5.60391H17.3371V4.20293H15.9361V5.60391Z" fill="#ED295D" fill-opacity="0.6"/>
</svg>
