<svg width="21" height="21" viewBox="0 0 21 21" fill="none" xmlns="http://www.w3.org/2000/svg">
<path d="M11.5335 18.0227C14.8742 16.3193 17.4813 13.4984 17.4813 10.0685C17.4813 6.41057 14.516 3.44525 10.8581 3.44525C7.20018 3.44525 4.23486 6.41057 4.23486 10.0685C4.23486 13.4984 6.842 16.3193 10.1826 18.0227C10.6071 18.2392 11.1091 18.2392 11.5335 18.0227Z" stroke="#EF7F18" stroke-width="1.75321" stroke-linecap="round" stroke-linejoin="round"/>
<path d="M13.3418 10.0685C13.3418 11.4402 12.2298 12.5522 10.8581 12.5522C9.48637 12.5522 8.37438 11.4402 8.37438 10.0685C8.37438 8.69676 9.48637 7.58477 10.8581 7.58477C12.2298 7.58477 13.3418 8.69676 13.3418 10.0685Z" stroke="#EF7F18" stroke-width="1.75321" stroke-linecap="round" stroke-linejoin="round"/>
</svg>
