<svg width="27" height="31" viewBox="0 0 27 31" fill="none" xmlns="http://www.w3.org/2000/svg">
<path fill-rule="evenodd" clip-rule="evenodd" d="M7.5 3.27777C7.10217 3.27777 6.72064 3.43581 6.43934 3.71711C6.15803 3.99841 6 4.37995 6 4.77777V9.27777C6 9.51064 5.94578 9.74031 5.84164 9.94859L3.63364 14.3646C3.21705 15.1977 3.00008 16.1163 3 17.0478C3 17.0477 3 17.0478 3 17.0478V25.7778C3 26.1756 3.15804 26.5571 3.43934 26.8384C3.72064 27.1197 4.10218 27.2778 4.5 27.2778H22.5C22.8978 27.2778 23.2794 27.1197 23.5607 26.8384C23.842 26.5571 24 26.1756 24 25.7778V17.0479C24 17.0478 24 17.0479 24 17.0479C23.9999 16.1164 23.783 15.1977 23.3664 14.3647L21.9504 11.5327C21.3255 10.283 21.0001 8.90506 21 7.50787V4.77777C21 4.37995 20.842 3.99842 20.5607 3.71711C20.2794 3.43581 19.8978 3.27777 19.5 3.27777H7.5ZM4.31802 1.59579C5.16193 0.751877 6.30653 0.277771 7.5 0.277771H19.5C20.6935 0.277771 21.8381 0.751877 22.682 1.59579C23.5259 2.4397 24 3.5843 24 4.77777L24 7.50767C24 7.50763 24 7.5077 24 7.50767C24.0001 8.43909 24.217 9.3578 24.6336 10.1909L26.0496 13.0229C26.6745 14.2725 26.9999 15.6505 27 17.0477V25.7778C27 26.9712 26.5259 28.1158 25.682 28.9597C24.8381 29.8037 23.6935 30.2778 22.5 30.2778H4.5C3.30652 30.2778 2.16193 29.8037 1.31802 28.9597C0.474106 28.1158 0 26.9712 0 25.7778V17.0478C9.50202e-05 15.6506 0.32547 14.2726 0.950359 13.0229C0.950345 13.023 0.950373 13.0229 0.950359 13.0229L3 8.92367V4.77777C3 3.5843 3.47411 2.4397 4.31802 1.59579Z" fill="#B3B3B3"/>
<path fill-rule="evenodd" clip-rule="evenodd" d="M10.4998 7.77777C10.4998 6.94934 11.1714 6.27777 11.9998 6.27777H14.9998C15.8283 6.27777 16.4998 6.94934 16.4998 7.77777C16.4998 8.6062 15.8283 9.27777 14.9998 9.27777H11.9998C11.1714 9.27777 10.4998 8.6062 10.4998 7.77777ZM3.82902 7.93613C4.56999 7.56565 5.471 7.86598 5.84148 8.60695L8.04944 13.0229C8.04943 13.0228 8.04945 13.0229 8.04944 13.0229C8.67433 14.2725 8.99974 15.6505 8.99984 17.0477V25.7778C8.99984 26.9712 8.52573 28.1158 7.68182 28.9597C6.83791 29.8037 5.69332 30.2778 4.49984 30.2778C3.67141 30.2778 2.99984 29.6062 2.99984 28.7778C2.99984 27.9493 3.67141 27.2778 4.49984 27.2778C4.89766 27.2778 5.2792 27.1197 5.5605 26.8384C5.8418 26.5571 5.99984 26.1756 5.99984 25.7778V17.0479C5.99984 17.0478 5.99984 17.0479 5.99984 17.0479C5.99976 16.1165 5.78284 15.1977 5.36624 14.3647L3.1582 9.94859C2.78772 9.20762 3.08805 8.30661 3.82902 7.93613ZM13.3179 16.5958C14.1618 15.7519 15.3064 15.2778 16.4998 15.2778C17.6933 15.2778 18.8379 15.7519 19.6818 16.5958C20.5257 17.4397 20.9998 18.5843 20.9998 19.7778C20.9998 20.9712 20.5257 22.1158 19.6818 22.9597C18.8379 23.8037 17.6933 24.2778 16.4998 24.2778C15.3064 24.2778 14.1618 23.8037 13.3179 22.9597C12.4739 22.1158 11.9998 20.9712 11.9998 19.7778C11.9998 18.5843 12.4739 17.4397 13.3179 16.5958ZM16.4998 18.2778C16.102 18.2778 15.7205 18.4358 15.4392 18.7171C15.1579 18.9984 14.9998 19.3799 14.9998 19.7778C14.9998 20.1756 15.1579 20.5571 15.4392 20.8384C15.7205 21.1197 16.102 21.2778 16.4998 21.2778C16.8977 21.2778 17.2792 21.1197 17.5605 20.8384C17.8418 20.5571 17.9998 20.1756 17.9998 19.7778C17.9998 19.3799 17.8418 18.9984 17.5605 18.7171C17.2792 18.4358 16.8977 18.2778 16.4998 18.2778Z" fill="#B3B3B3"/>
</svg>
