<svg width="32" height="31" viewBox="0 0 32 31" fill="none" xmlns="http://www.w3.org/2000/svg">
<path d="M10.8884 13.8058L21.1067 8.69666M21.1116 23.0558L10.9029 17.9515M29.875 6.625C29.875 9.17932 27.8043 11.25 25.25 11.25C22.6957 11.25 20.625 9.17932 20.625 6.625C20.625 4.07068 22.6957 2 25.25 2C27.8043 2 29.875 4.07068 29.875 6.625ZM11.375 15.875C11.375 18.4293 9.30432 20.5 6.75 20.5C4.19568 20.5 2.125 18.4293 2.125 15.875C2.125 13.3207 4.19568 11.25 6.75 11.25C9.30432 11.25 11.375 13.3207 11.375 15.875ZM29.875 25.125C29.875 27.6793 27.8043 29.75 25.25 29.75C22.6957 29.75 20.625 27.6793 20.625 25.125C20.625 22.5707 22.6957 20.5 25.25 20.5C27.8043 20.5 29.875 22.5707 29.875 25.125Z" stroke="#6E6E6E" stroke-width="2.5"/>
</svg>
