<svg width="23" height="20" viewBox="0 0 23 20" fill="none" xmlns="http://www.w3.org/2000/svg">
<path d="M22.9377 3.12101C22.1054 3.51498 21.2081 3.77387 20.2785 3.89768C21.2298 3.30111 21.9648 2.3556 22.3108 1.21874C21.4135 1.78154 20.419 2.1755 19.3704 2.40062C18.5164 1.4326 17.3165 0.869797 15.9545 0.869797C13.4141 0.869797 11.3386 3.03096 11.3386 5.69866C11.3386 6.08136 11.3819 6.45281 11.4575 6.80175C7.60917 6.59914 4.18241 4.67435 1.9015 1.75903C1.50153 2.46816 1.27452 3.30111 1.27452 4.17908C1.27452 5.85624 2.08527 7.34204 3.33923 8.18625C2.57172 8.18625 1.85826 7.96113 1.23128 7.62345V7.65721C1.23128 9.99848 2.83116 11.957 4.94992 12.396C4.26967 12.5899 3.55553 12.6168 2.86359 12.4748C3.1572 13.4344 3.73221 14.274 4.50781 14.8757C5.2834 15.4773 6.22057 15.8108 7.18758 15.8291C5.54839 17.1804 3.51651 17.9107 1.42586 17.9002C1.05832 17.9002 0.690782 17.8777 0.323242 17.8327C2.37714 19.206 4.8202 20.0051 7.43621 20.0051C15.9545 20.0051 20.6352 12.6437 20.6352 6.26146C20.6352 6.04759 20.6352 5.84498 20.6244 5.63112C21.5324 4.95575 22.3108 4.10029 22.9377 3.12101Z" fill="#ED295D" fill-opacity="0.6"/>
</svg>
