<svg width="250" height="242" viewBox="0 0 250 242" fill="none" xmlns="http://www.w3.org/2000/svg">
<g clip-path="url(#clip0_270_1904)">
<path d="M86.9429 114.946C87.4023 114.299 88.0065 113.769 88.7072 113.397C89.4079 113.026 90.1856 112.823 90.9784 112.806C91.7711 112.788 92.557 112.957 93.2732 113.297C93.9894 113.638 94.6161 114.141 95.1034 114.767L112.208 108.95L109.837 118.039L93.9575 122.17C92.9632 122.844 91.7636 123.147 90.5689 123.024C89.3742 122.902 88.2608 122.362 87.4239 121.5C86.5871 120.638 86.0802 119.509 85.9923 118.31C85.9043 117.112 86.2408 115.921 86.9429 114.946Z" fill="#FFB8B8"/>
<path d="M221.296 241.273C222.556 227.689 226.038 214.403 231.602 201.948C233.152 198.481 234.859 195.091 236.722 191.778C237.2 190.925 235.891 190.159 235.412 191.012C228.638 203.081 223.892 216.182 221.365 229.791C220.661 233.592 220.133 237.419 219.779 241.273C219.689 242.245 221.207 242.239 221.296 241.273Z" fill="#E6E6E6"/>
<path d="M240.395 194.212C245.7 194.212 250 189.908 250 184.6C250 179.291 245.7 174.988 240.395 174.988C235.09 174.988 230.789 179.291 230.789 184.6C230.789 189.908 235.09 194.212 240.395 194.212Z" fill="#E6E6E6"/>
<path d="M222.278 241.528C223.096 232.715 225.355 224.097 228.964 216.016C229.97 213.767 231.077 211.568 232.286 209.418C232.346 209.306 232.361 209.174 232.326 209.051C232.292 208.928 232.211 208.824 232.101 208.759C231.991 208.695 231.86 208.676 231.736 208.706C231.612 208.736 231.504 208.813 231.436 208.921C227.041 216.751 223.963 225.251 222.323 234.08C221.867 236.545 221.524 239.028 221.294 241.528C221.236 242.159 222.22 242.155 222.278 241.528H222.278Z" fill="#E6E6E6"/>
<path d="M234.669 210.998C238.111 210.998 240.901 208.206 240.901 204.762C240.901 201.318 238.111 198.526 234.669 198.526C231.227 198.526 228.438 201.318 228.438 204.762C228.438 208.206 231.227 210.998 234.669 210.998Z" fill="#E6E6E6"/>
<path d="M221.036 240.94C216.263 233.488 212.747 225.302 210.626 216.709C210.037 214.317 209.558 211.901 209.19 209.462C209.168 209.337 209.099 209.224 208.996 209.148C208.893 209.072 208.765 209.039 208.639 209.056C208.512 209.073 208.397 209.139 208.318 209.239C208.239 209.339 208.202 209.466 208.214 209.594C209.562 218.472 212.358 227.068 216.492 235.039C217.648 237.264 218.904 239.433 220.26 241.545C220.601 242.079 221.375 241.47 221.036 240.94V240.94Z" fill="#E6E6E6"/>
<path d="M208.206 210.56C211.648 210.56 214.438 207.768 214.438 204.324C214.438 200.88 211.648 198.088 208.206 198.088C204.765 198.088 201.975 200.88 201.975 204.324C201.975 207.768 204.765 210.56 208.206 210.56Z" fill="#E6E6E6"/>
<path d="M171.184 151.022C171.594 150.402 171.862 149.698 171.97 148.963C172.078 148.227 172.024 147.476 171.811 146.764C171.598 146.051 171.232 145.394 170.738 144.839C170.243 144.283 169.634 143.843 168.951 143.549L170.261 125.518L162.069 130.108L162.081 146.526C161.664 147.707 161.693 148.999 162.164 150.159C162.635 151.319 163.515 152.266 164.637 152.82C165.759 153.374 167.045 153.498 168.252 153.166C169.459 152.835 170.502 152.072 171.184 151.022V151.022Z" fill="#FFB8B8"/>
<path d="M169.146 80.9325L171.386 138.31L162.286 137.804L160.264 77.6028L162.183 76.699C162.913 76.3552 163.717 76.1977 164.523 76.2405C165.328 76.2833 166.111 76.5252 166.801 76.9444C167.49 77.3637 168.065 77.9474 168.475 78.6432C168.884 79.3391 169.115 80.1256 169.146 80.9325Z" fill="#ED285D"/>
<path d="M141.002 235.866L134.804 235.866L131.855 211.943L141.003 211.943L141.002 235.866Z" fill="#FFB8B8"/>
<path d="M130.378 234.094H142.331V241.625H122.852C122.852 240.636 123.046 239.656 123.424 238.743C123.803 237.829 124.357 236.999 125.056 236.299C125.755 235.6 126.584 235.045 127.498 234.667C128.411 234.288 129.389 234.094 130.378 234.094Z" fill="#2F2E41"/>
<path d="M192.571 228.454L186.946 231.06L174.227 210.59L182.528 206.745L192.571 228.454Z" fill="#FFB8B8"/>
<path d="M182.184 231.312L193.032 226.287L196.193 233.122L178.516 241.311C177.678 239.498 177.593 237.426 178.281 235.551C178.969 233.676 180.373 232.152 182.184 231.312Z" fill="#2F2E41"/>
<path d="M126.286 157.793L132.678 230.788L141.273 229.776L147.625 163.099L182.729 226.741L191.829 224.211C191.829 224.211 162.539 136.54 160.264 129.204C157.77 121.163 138.019 118.074 138.019 118.074L137.261 117.316C128.774 128.748 125.375 143.581 126.286 157.793Z" fill="#2F2E41"/>
<path d="M160.339 70.3663C167.197 70.3663 172.756 64.8033 172.756 57.941C172.756 51.0787 167.197 45.5157 160.339 45.5157C153.481 45.5157 147.922 51.0787 147.922 57.941C147.922 64.8033 153.481 70.3663 160.339 70.3663Z" fill="#FFB8B8"/>
<path d="M168.135 81.9158L159.505 126.925C159.505 126.925 146.391 124.305 141.72 121.148C139.869 119.893 138.191 118.598 136.775 117.425C136.497 117.197 136.234 116.969 135.977 116.752C133.641 114.753 132.205 113.266 132.205 113.266C132.205 113.266 132.953 109.598 133.868 105.258C134.889 100.396 136.128 94.6846 136.76 92.3524C138.15 87.2378 142.923 81.2784 146.644 77.2211C147.991 75.7497 149.713 74.673 151.625 74.1062C153.537 73.5394 155.567 73.5039 157.498 74.0036L164.232 75.7439C165.545 76.0828 166.68 76.9098 167.405 78.0565C168.13 79.2031 168.391 80.5832 168.135 81.9158Z" fill="#ED285D"/>
<path opacity="0.2" d="M147.265 101.575C147.265 101.575 142.625 111.227 135.977 116.752C133.641 114.753 132.205 113.266 132.205 113.266C132.205 113.266 132.953 109.598 133.868 105.258C139.439 102.313 145.183 100.457 147.265 101.575Z" fill="black"/>
<path d="M155.496 83.9064C155.038 83.6725 154.559 83.4821 154.065 83.3375C153.057 83.061 151.996 83.0393 150.977 83.2742C149.958 83.509 149.014 83.9932 148.228 84.6833L120.95 104.678L99.2539 111.98L103.174 121.259L135.517 113.355L156.968 94.2787C157.706 93.5702 158.265 92.6962 158.599 91.7288C158.933 90.7614 159.032 89.7284 158.889 88.715C158.745 87.7017 158.362 86.7371 157.772 85.901C157.182 85.0649 156.402 84.3812 155.496 83.9064Z" fill="#ED285D"/>
<path d="M161.073 70.2519C162.841 67.6049 164.235 63.9345 162.29 61.416C160.369 58.9299 156.581 59.2962 153.639 58.1961C149.542 56.6639 147.166 51.8475 147.907 47.5341C148.648 43.2206 152.108 39.6449 156.231 38.1819C160.353 36.7188 165.001 37.1946 169.038 38.8794C174.007 40.9534 178.27 44.9655 180.058 50.0477C181.845 55.1299 180.889 61.2321 177.181 65.1384C173.206 69.3263 166.966 70.4424 161.194 70.3747" fill="#2F2E41"/>
<path d="M180.573 55.6013C181.079 58.4298 184.179 60.0362 187.029 60.3893C189.879 60.7424 192.827 60.2897 195.601 61.0313C200.492 62.3387 203.718 67.0455 205.493 71.7894C207.269 76.5333 208.056 81.6535 210.363 86.1627C212.67 90.6719 217.143 94.6472 222.188 94.2255C221.199 96.7153 219.467 98.8393 217.228 100.308C214.989 101.776 212.352 102.518 209.676 102.431C207 102.344 204.416 101.433 202.277 99.8227C200.137 98.2121 198.546 95.9802 197.721 93.4316C195.868 87.7064 197.995 80.8788 194.755 75.8095C192.961 73.0042 189.864 71.3542 186.878 69.8839C183.892 68.4137 180.758 66.9046 178.756 64.2444C176.754 61.5842 176.354 57.383 178.821 55.148" fill="#2F2E41"/>
<path d="M241.039 241.891H79.1117C78.9521 241.891 78.799 241.827 78.6861 241.715C78.5732 241.602 78.5098 241.448 78.5098 241.289C78.5098 241.129 78.5732 240.976 78.6861 240.863C78.799 240.75 78.9521 240.686 79.1117 240.686H241.039C241.199 240.686 241.352 240.75 241.465 240.863C241.578 240.976 241.641 241.129 241.641 241.289C241.641 241.448 241.578 241.602 241.465 241.715C241.352 241.827 241.199 241.891 241.039 241.891Z" fill="#3F3D56"/>
<path d="M72.7861 31.7614C61.8002 26.4578 49.2059 25.5843 37.6688 29.3257C26.1318 33.067 16.5576 41.1296 10.9725 51.8069C10.7556 52.2245 10.5421 52.651 10.3345 53.0804C6.34227 61.3364 4.91857 70.6049 6.24348 79.7138C7.56838 88.8227 11.5824 97.3629 17.7778 104.254C23.9733 111.146 32.072 116.079 41.0497 118.43C50.0275 120.782 59.4811 120.445 68.2151 117.464C76.9491 114.482 84.5712 108.99 90.1176 101.68C95.664 94.3709 98.8855 85.5733 99.3748 76.3998C99.8641 67.2264 97.5991 58.0891 92.8664 50.1435C88.1336 42.198 81.1457 35.8009 72.7861 31.7614ZM32.9927 114.055C22.1121 108.784 13.7428 99.4644 9.72133 88.1424C5.69984 76.8205 6.35465 64.4206 11.5421 53.6639C11.8103 53.1093 12.0876 52.5665 12.3742 52.0355C16.5422 44.2503 22.9365 37.8741 30.762 33.6998C38.5875 29.5256 47.4989 27.7375 56.3883 28.5578C65.2777 29.3781 73.7527 32.7706 80.7596 38.3136C87.7665 43.8566 92.9961 51.3054 95.7981 59.7338C98.6002 68.1623 98.851 77.1985 96.5195 85.7189C94.188 94.2393 89.377 101.868 82.6846 107.656C75.9923 113.445 67.714 117.137 58.879 118.275C50.044 119.413 41.0421 117.945 32.9927 114.055Z" fill="#3F3D56"/>
<path d="M88.7573 90.976C84.1873 100.427 76.0489 107.676 66.1324 111.128C56.2159 114.581 45.3336 113.954 35.8796 109.385C26.4255 104.817 19.1741 96.6812 15.7206 86.768C12.267 76.8548 12.8942 65.9762 17.4642 56.5253C18.0104 55.3959 18.602 54.3108 19.2362 53.2612C24.5057 44.5552 32.927 38.2125 42.7515 35.5501C52.5759 32.8877 63.0487 34.1102 71.9953 38.9636C80.9418 43.8171 87.6747 51.9287 90.7961 61.6141C93.9174 71.2995 93.1872 81.8146 88.7573 90.976Z" fill="#E6E6E6"/>
<path d="M62.1063 80.3594C61.8036 78.8271 61.1212 77.3995 60.122 76.2087C58.8716 74.7774 57.5064 73.452 56.04 72.2458L60.6803 62.6495C63.0461 64.2726 64.9078 66.5332 66.0548 69.1756L69.9913 65.9547C69.3648 64.4206 68.4759 63.0107 67.3647 61.7884C66.1379 60.4238 64.7337 59.2321 63.1896 58.245L65.5415 53.3811L61.0758 51.2232L58.7008 56.1349C56.8817 55.4972 54.9454 55.2576 53.0206 55.432C51.2832 55.5865 49.6054 56.1618 48.1306 57.1085C46.7091 58.0411 45.5719 59.3529 44.8473 60.8958C43.9664 62.5215 43.6498 64.3929 43.9482 66.2111C44.2586 67.8104 44.9694 69.3006 46.0135 70.541C47.2795 72.0042 48.6659 73.3572 50.1582 74.5858L45.7115 83.7817C42.8089 82.0958 40.497 79.5507 39.0874 76.4896L35.1483 79.7167C35.9291 81.4434 37.0058 83.0166 38.3296 84.3647C39.7777 85.8471 41.4243 87.1191 43.2225 88.1444L40.8908 92.9665L45.3565 95.1244L47.7315 90.2127C50.3444 91.1376 53.1915 91.1841 55.8473 90.3455C57.0269 89.9555 58.1151 89.3239 59.0431 88.4907C59.971 87.6575 60.7184 86.6409 61.2381 85.5053C62.0907 83.9313 62.3964 82.1194 62.1063 80.3594ZM52.6807 69.3693C51.754 68.5104 51.0078 67.4733 50.4854 66.3183C50.2892 65.8385 50.2013 65.3202 50.2281 64.8004C50.2549 64.2806 50.3957 63.7722 50.6405 63.3119C51.1228 62.232 52.0098 61.3854 53.1067 60.9579C54.3004 60.5302 55.5941 60.4878 56.8067 60.8366L52.6807 69.3693ZM53.1864 85.3003C52.0538 85.7174 50.8211 85.7598 49.669 85.4213L53.4945 77.51C54.3804 78.279 55.1012 79.2216 55.6135 80.281C55.7969 80.7048 55.8828 81.1655 55.8646 81.629C55.8464 82.0924 55.7247 82.5466 55.5085 82.9578C55.0537 84.0031 54.2242 84.8399 53.1864 85.3003Z" fill="#ED285D"/>
</g>
<defs>
<clipPath id="clip0_270_1904">
<rect width="250" height="242" fill="white"/>
</clipPath>
</defs>
</svg>
