<svg width="21" height="21" viewBox="0 0 21 21" fill="none" xmlns="http://www.w3.org/2000/svg">
<path d="M0.328235 20.8838L1.68118 15.9123C0.789695 14.3841 0.321326 12.646 0.324232 10.8768C0.324232 5.34992 4.80436 0.869797 10.3312 0.869797C15.8581 0.869797 20.3382 5.34992 20.3382 10.8768C20.3382 16.4036 15.8581 20.8838 10.3312 20.8838C8.56275 20.8866 6.82542 20.4186 5.2977 19.5278L0.328235 20.8838ZM6.71969 6.1815C6.59046 6.18952 6.46419 6.22356 6.34843 6.28157C6.23988 6.34304 6.14078 6.41989 6.05423 6.50973C5.93414 6.62281 5.8661 6.72088 5.79305 6.81594C5.4232 7.29727 5.22426 7.88811 5.22765 8.49511C5.22965 8.98546 5.35774 9.46279 5.55788 9.9091C5.96717 10.8117 6.64064 11.7674 7.53026 12.653C7.74441 12.8662 7.95355 13.0803 8.17871 13.2794C9.28287 14.2516 10.5986 14.9527 12.0214 15.3269L12.5908 15.4139C12.7759 15.4239 12.961 15.4099 13.1472 15.4009C13.4386 15.3859 13.7232 15.307 13.9808 15.1698C14.1118 15.1023 14.2397 15.0288 14.364 14.9496C14.364 14.9496 14.4071 14.9216 14.4891 14.8596C14.6242 14.7595 14.7073 14.6884 14.8193 14.5714C14.9024 14.4853 14.9744 14.3842 15.0295 14.2691C15.1075 14.106 15.1856 13.7948 15.2176 13.5356C15.2416 13.3375 15.2346 13.2294 15.2316 13.1624C15.2276 13.0553 15.1386 12.9442 15.0415 12.8972L14.4591 12.636C14.4591 12.636 13.5885 12.2567 13.0571 12.0146C13.0011 11.9901 12.941 11.9762 12.88 11.9735C12.8115 11.9665 12.7423 11.9742 12.6771 11.9961C12.6119 12.0181 12.5521 12.0537 12.5017 12.1006V12.0986C12.4967 12.0986 12.4297 12.1557 11.7062 13.0323C11.6646 13.0881 11.6074 13.1302 11.5419 13.1534C11.4763 13.1766 11.4053 13.1797 11.3379 13.1624C11.2727 13.1449 11.2088 13.1229 11.1468 13.0963C11.0227 13.0443 10.9797 13.0243 10.8946 12.9872L10.8896 12.9852C10.3171 12.7353 9.78705 12.3977 9.3185 11.9845C9.19242 11.8745 9.07533 11.7544 8.95525 11.6383C8.56155 11.2613 8.21845 10.8348 7.93454 10.3694L7.8755 10.2744C7.83309 10.2105 7.7988 10.1416 7.77343 10.0692C7.7354 9.92211 7.83447 9.80403 7.83447 9.80403C7.83447 9.80403 8.07764 9.53784 8.19072 9.39374C8.28487 9.27398 8.37272 9.14939 8.4539 9.02048C8.57198 8.83035 8.60901 8.63521 8.54697 8.48411C8.26677 7.79963 7.97657 7.11815 7.67836 6.44168C7.61932 6.30759 7.4442 6.21152 7.28509 6.19251C7.23105 6.1865 7.17701 6.1805 7.12297 6.1765C6.98858 6.16982 6.85392 6.17116 6.71969 6.1805V6.1815Z" fill="#ED295D" fill-opacity="0.6"/>
</svg>
